<svg width="203" height="79" viewBox="0 0 203 79" fill="none" xmlns="http://www.w3.org/2000/svg">
<path d="M11.2495 21.3828C12.0305 21.3828 12.6354 21.1738 13.0644 20.7558C13.4934 20.3268 13.7024 19.7329 13.6914 18.9739H18.9051C18.9051 20.9318 18.2011 22.5377 16.7932 23.7916C15.3963 25.0456 13.5924 25.6725 11.3815 25.6725C8.78567 25.6725 6.73979 24.8586 5.24387 23.2307C3.74796 21.6028 3 19.3479 3 16.4661V16.2351C3 14.4312 3.32998 12.8418 3.98994 11.4668C4.6609 10.0809 5.62335 9.01948 6.87728 8.28252C8.13121 7.53457 9.61612 7.16059 11.332 7.16059C13.6529 7.16059 15.4953 7.80405 16.8592 9.09098C18.2231 10.3779 18.9051 12.1213 18.9051 14.3212H13.6914C13.6914 13.3972 13.4659 12.6878 13.0149 12.1928C12.564 11.6978 11.959 11.4503 11.2 11.4503C9.75911 11.4503 8.91766 12.3688 8.67567 14.2057C8.59868 14.7887 8.56018 15.5916 8.56018 16.6145C8.56018 18.4074 8.77467 19.6504 9.20364 20.3433C9.63262 21.0363 10.3146 21.3828 11.2495 21.3828Z" fill="#333333"/>
<path d="M30.3653 12.5228L28.5339 12.3908C26.785 12.3908 25.6631 12.9408 25.1681 14.0407V25.3425H19.6079V7.49057H24.8216L25.0031 9.78394C25.9381 8.03504 27.2415 7.16059 28.9134 7.16059C29.5074 7.16059 30.0243 7.22659 30.4643 7.35858L30.3653 12.5228Z" fill="#333333"/>
<path d="M36.5459 25.3425H30.9692V7.49057H36.5459V25.3425ZM30.6392 2.88733C30.6392 2.09538 30.9252 1.44642 31.4972 0.940446C32.0691 0.434475 32.8116 0.18149 33.7245 0.18149C34.6375 0.18149 35.3799 0.434475 35.9519 0.940446C36.5239 1.44642 36.8099 2.09538 36.8099 2.88733C36.8099 3.67929 36.5239 4.32825 35.9519 4.83422C35.3799 5.34019 34.6375 5.59318 33.7245 5.59318C32.8116 5.59318 32.0691 5.34019 31.4972 4.83422C30.9252 4.32825 30.6392 3.67929 30.6392 2.88733Z" fill="#333333"/>
<path d="M44.7723 3.05232V7.49057H47.7091V11.3513H44.7723V19.5184C44.7723 20.1893 44.8933 20.6568 45.1353 20.9208C45.3773 21.1848 45.8557 21.3168 46.5707 21.3168C47.1207 21.3168 47.5826 21.2838 47.9566 21.2178V25.1941C46.9557 25.513 45.9107 25.6725 44.8218 25.6725C42.9079 25.6725 41.4945 25.2216 40.5815 24.3196C39.6686 23.4177 39.2121 22.0482 39.2121 20.2113V11.3513H36.9353V7.49057H39.2121V3.05232H44.7723Z" fill="#333333"/>
<path d="M54.0877 25.3425H48.511V7.49057H54.0877V25.3425ZM48.181 2.88733C48.181 2.09538 48.467 1.44642 49.039 0.940446C49.6109 0.434475 50.3534 0.18149 51.2663 0.18149C52.1793 0.18149 52.9217 0.434475 53.4937 0.940446C54.0657 1.44642 54.3517 2.09538 54.3517 2.88733C54.3517 3.67929 54.0657 4.32825 53.4937 4.83422C52.9217 5.34019 52.1793 5.59318 51.2663 5.59318C50.3534 5.59318 49.6109 5.34019 49.039 4.83422C48.467 4.32825 48.181 3.67929 48.181 2.88733Z" fill="#333333"/>
<path d="M62.6186 21.3828C63.3995 21.3828 64.0045 21.1738 64.4335 20.7558C64.8624 20.3268 65.0714 19.7329 65.0604 18.9739H70.2741C70.2741 20.9318 69.5702 22.5377 68.1623 23.7916C66.7653 25.0456 64.9614 25.6725 62.7506 25.6725C60.1547 25.6725 58.1088 24.8586 56.6129 23.2307C55.117 21.6028 54.3691 19.3479 54.3691 16.4661V16.2351C54.3691 14.4312 54.699 12.8418 55.359 11.4668C56.03 10.0809 56.9924 9.01948 58.2463 8.28252C59.5003 7.53457 60.9852 7.16059 62.7011 7.16059C65.0219 7.16059 66.8643 7.80405 68.2283 9.09098C69.5922 10.3779 70.2741 12.1213 70.2741 14.3212H65.0604C65.0604 13.3972 64.8349 12.6878 64.384 12.1928C63.933 11.6978 63.328 11.4503 62.5691 11.4503C61.1282 11.4503 60.2867 12.3688 60.0447 14.2057C59.9677 14.7887 59.9292 15.5916 59.9292 16.6145C59.9292 18.4074 60.1437 19.6504 60.5727 20.3433C61.0017 21.0363 61.6836 21.3828 62.6186 21.3828Z" fill="#333333"/>
<path d="M81.7599 25.3425C81.5619 24.9796 81.3859 24.4461 81.2319 23.7421C80.209 25.0291 78.7791 25.6725 76.9422 25.6725C75.2593 25.6725 73.8293 25.1666 72.6524 24.1546C71.4755 23.1317 70.887 21.8502 70.887 20.3103C70.887 18.3744 71.602 16.9115 73.0319 15.9216C74.4618 14.9316 76.5407 14.4367 79.2685 14.4367H80.9844V13.4962C80.9844 11.8573 80.275 11.0379 78.856 11.0379C77.5361 11.0379 76.8762 11.6868 76.8762 12.9848H71.316C71.316 11.2579 72.0474 9.85543 73.5104 8.7775C74.9843 7.69956 76.8597 7.16059 79.1365 7.16059C81.4134 7.16059 83.2118 7.71606 84.5317 8.82699C85.8516 9.93793 86.5281 11.4613 86.5611 13.3972V21.3003C86.5831 22.9392 86.8361 24.1931 87.3201 25.0621V25.3425H81.7599ZM78.2786 21.7128C78.9715 21.7128 79.5435 21.5643 79.9945 21.2673C80.4565 20.9703 80.7864 20.6348 80.9844 20.2608V17.4065H79.3675C77.4316 17.4065 76.4637 18.2755 76.4637 20.0134C76.4637 20.5193 76.6342 20.9318 76.9752 21.2508C77.3161 21.5588 77.7506 21.7128 78.2786 21.7128Z" fill="#333333"/>
<path d="M93.8306 25.3425H88.2539V0H93.8306V25.3425Z" fill="#333333"/>
<path d="M108.805 25.3425C108.607 24.7816 108.48 23.9511 108.425 22.8512C107.732 23.7531 106.847 24.4516 105.769 24.9466C104.702 25.4305 103.569 25.6725 102.37 25.6725C100.654 25.6725 99.2629 25.1941 98.196 24.2371C97.14 23.2802 96.6121 22.0702 96.6121 20.6073C96.6121 18.8694 97.3325 17.4945 98.7734 16.4826C100.225 15.4706 102.244 14.9646 104.829 14.9646H108.409V12.9353C108.409 11.6593 108.013 10.6584 107.221 9.93243C106.44 9.19547 105.296 8.82699 103.789 8.82699C102.414 8.82699 101.276 9.17897 100.374 9.88293C99.4719 10.5869 99.0209 11.4338 99.0209 12.4238L97.041 12.4073C97.041 10.9884 97.701 9.76194 99.0209 8.728C100.341 7.68306 101.963 7.16059 103.888 7.16059C105.879 7.16059 107.446 7.66106 108.59 8.662C109.745 9.65195 110.339 11.0379 110.372 12.8198V21.2673C110.372 22.9942 110.554 24.2866 110.917 25.1446V25.3425H108.805ZM102.601 23.9236C103.921 23.9236 105.098 23.6046 106.132 22.9667C107.177 22.3287 107.936 21.4763 108.409 20.4093V16.4826H104.878C102.909 16.5046 101.369 16.8675 100.258 17.5715C99.1474 18.2645 98.5919 19.2214 98.5919 20.4423C98.5919 21.4433 98.9604 22.2737 99.6974 22.9337C100.445 23.5936 101.413 23.9236 102.601 23.9236Z" fill="#333333"/>
<path d="M115.16 25.3425H113.18V0H115.16V25.3425Z" fill="#333333"/>
<path d="M132.189 16.598C132.189 19.3809 131.573 21.5918 130.341 23.2307C129.109 24.8586 127.46 25.6725 125.392 25.6725C122.95 25.6725 121.08 24.8146 119.782 23.0987V32.2062H117.819V7.49057H119.65L119.749 10.0149C121.036 8.11203 122.9 7.16059 125.342 7.16059C127.476 7.16059 129.148 7.96904 130.358 9.58595C131.579 11.2029 132.189 13.4467 132.189 16.3176V16.598ZM130.209 16.2516C130.209 13.9747 129.742 12.1763 128.807 10.8564C127.872 9.53645 126.569 8.87649 124.897 8.87649C123.687 8.87649 122.647 9.16797 121.778 9.75094C120.909 10.3339 120.244 11.1809 119.782 12.2918V20.8548C120.255 21.8777 120.931 22.6587 121.811 23.1977C122.691 23.7366 123.731 24.0061 124.93 24.0061C126.591 24.0061 127.883 23.3462 128.807 22.0262C129.742 20.6953 130.209 18.7704 130.209 16.2516Z" fill="#333333"/>
<path d="M135.838 10.5099C136.487 9.44296 137.318 8.61801 138.33 8.03504C139.342 7.45207 140.447 7.16059 141.646 7.16059C143.56 7.16059 144.984 7.69956 145.919 8.7775C146.854 9.85543 147.327 11.4723 147.338 13.6282V25.3425H145.375V13.6117C145.364 12.0168 145.023 10.8289 144.352 10.0479C143.692 9.26697 142.63 8.87649 141.167 8.87649C139.946 8.87649 138.863 9.26147 137.917 10.0314C136.982 10.7904 136.289 11.8188 135.838 13.1167V25.3425H133.875V0H135.838V10.5099Z" fill="#333333"/>
<path d="M160.985 25.3425C160.787 24.7816 160.661 23.9511 160.606 22.8512C159.913 23.7531 159.028 24.4516 157.95 24.9466C156.883 25.4305 155.75 25.6725 154.551 25.6725C152.835 25.6725 151.443 25.1941 150.377 24.2371C149.321 23.2802 148.793 22.0702 148.793 20.6073C148.793 18.8694 149.513 17.4945 150.954 16.4826C152.406 15.4706 154.424 14.9646 157.009 14.9646H160.589V12.9353C160.589 11.6593 160.193 10.6584 159.402 9.93243C158.621 9.19547 157.477 8.82699 155.97 8.82699C154.595 8.82699 153.456 9.17897 152.554 9.88293C151.652 10.5869 151.201 11.4338 151.201 12.4238L149.222 12.4073C149.222 10.9884 149.882 9.76194 151.201 8.728C152.521 7.68306 154.144 7.16059 156.069 7.16059C158.06 7.16059 159.627 7.66106 160.771 8.662C161.926 9.65195 162.52 11.0379 162.553 12.8198V21.2673C162.553 22.9942 162.734 24.2866 163.097 25.1446V25.3425H160.985ZM154.782 23.9236C156.102 23.9236 157.279 23.6046 158.313 22.9667C159.358 22.3287 160.116 21.4763 160.589 20.4093V16.4826H157.059C155.09 16.5046 153.55 16.8675 152.439 17.5715C151.328 18.2645 150.773 19.2214 150.773 20.4423C150.773 21.4433 151.141 22.2737 151.878 22.9337C152.626 23.5936 153.594 23.9236 154.782 23.9236Z" fill="#333333"/>
<path d="M179.5 16.598C179.5 19.3809 178.884 21.5918 177.652 23.2307C176.42 24.8586 174.765 25.6725 172.686 25.6725C170.2 25.6725 168.319 24.7486 167.043 22.9007L166.961 25.3425H165.113V0H167.076V10.0809C168.33 8.13403 170.189 7.16059 172.653 7.16059C174.765 7.16059 176.431 7.96904 177.652 9.58595C178.884 11.1919 179.5 13.4302 179.5 16.3011V16.598ZM177.52 16.2516C177.52 13.8977 177.064 12.0828 176.151 10.8069C175.238 9.51995 173.951 8.87649 172.29 8.87649C171.025 8.87649 169.953 9.18997 169.073 9.81694C168.193 10.4329 167.527 11.3403 167.076 12.5393V20.5908C168.066 22.8347 169.815 23.9566 172.323 23.9566C173.951 23.9566 175.221 23.3132 176.134 22.0262C177.058 20.7393 177.52 18.8144 177.52 16.2516Z" fill="#333333"/>
<path d="M188.082 25.6725C186.564 25.6725 185.189 25.2985 183.957 24.5506C182.736 23.8026 181.785 22.7632 181.103 21.4323C180.421 20.0903 180.08 18.5889 180.08 16.928V16.2186C180.08 14.5027 180.41 12.9573 181.07 11.5823C181.741 10.2074 182.67 9.12948 183.858 8.34852C185.046 7.55657 186.333 7.16059 187.719 7.16059C189.886 7.16059 191.602 7.90305 192.867 9.38796C194.143 10.8619 194.781 12.8803 194.781 15.4431V16.5485H182.043V16.928C182.043 18.9519 182.621 20.6403 183.776 21.9932C184.942 23.3352 186.405 24.0061 188.165 24.0061C189.221 24.0061 190.15 23.8136 190.953 23.4287C191.767 23.0437 192.504 22.4277 193.164 21.5808L194.401 22.5212C192.949 24.6221 190.843 25.6725 188.082 25.6725ZM187.719 8.84349C186.234 8.84349 184.98 9.38796 183.957 10.4769C182.945 11.5658 182.329 13.0288 182.109 14.8656H192.817V14.6512C192.762 12.9353 192.273 11.5383 191.349 10.4604C190.425 9.38246 189.215 8.84349 187.719 8.84349Z" fill="#333333"/>
<path d="M198.991 2.92033V7.49057H202.686V9.10748H198.991V21.0033C198.991 21.9932 199.167 22.7302 199.519 23.2142C199.882 23.6981 200.481 23.9401 201.317 23.9401C201.647 23.9401 202.18 23.8851 202.917 23.7751L203 25.392C202.483 25.579 201.779 25.6725 200.888 25.6725C199.535 25.6725 198.551 25.282 197.935 24.5011C197.319 23.7091 197.011 22.5487 197.011 21.0198V9.10748H193.727V7.49057H197.011V2.92033H198.991Z" fill="#333333"/>
<g style="mix-blend-mode:multiply">
<rect x="189.813" y="38.9031" width="13.1868" height="13.1868" rx="6.59341" fill="#D60031"/>
</g>
<g style="mix-blend-mode:multiply">
<rect x="183.22" y="38.9031" width="13.1868" height="13.1868" rx="6.59341" fill="#D60063"/>
</g>
<g style="mix-blend-mode:multiply">
<rect x="176.626" y="38.9031" width="13.1868" height="13.1868" rx="6.59341" fill="#D60094"/>
</g>
<g style="mix-blend-mode:multiply">
<rect x="170.033" y="38.9031" width="13.1868" height="13.1868" rx="6.59341" fill="#D600C6"/>
</g>
<g style="mix-blend-mode:multiply">
<rect x="163.439" y="38.9031" width="13.1868" height="13.1868" rx="6.59341" fill="#B500D6"/>
</g>
<g style="mix-blend-mode:multiply">
<rect x="156.846" y="38.9031" width="13.1868" height="13.1868" rx="6.59341" fill="#8400D6"/>
</g>
<g style="mix-blend-mode:multiply">
<rect x="150.253" y="38.9031" width="13.1868" height="13.1868" rx="6.59341" fill="#5200D6"/>
</g>
<g style="mix-blend-mode:multiply">
<rect x="143.659" y="38.9031" width="13.1868" height="13.1868" rx="6.59341" fill="#2100D6"/>
</g>
<g style="mix-blend-mode:multiply">
<rect x="137.066" y="38.9031" width="13.1868" height="13.1868" rx="6.59341" fill="#000FD6"/>
</g>
<g style="mix-blend-mode:multiply">
<rect x="130.472" y="38.9031" width="13.1868" height="13.1868" rx="6.59341" fill="#0042D6"/>
</g>
<g style="mix-blend-mode:multiply">
<rect x="123.879" y="38.9031" width="13.1868" height="13.1868" rx="6.59341" fill="#0073D6"/>
</g>
<g style="mix-blend-mode:multiply">
<rect x="117.286" y="38.9031" width="13.1868" height="13.1868" rx="6.59341" fill="#00A5D6"/>
</g>
<g style="mix-blend-mode:multiply">
<rect x="110.692" y="38.9031" width="13.1868" height="13.1868" rx="6.59341" fill="#00D6D6"/>
</g>
<g style="mix-blend-mode:multiply">
<rect x="99.3489" y="36.7054" width="17.5824" height="17.5824" rx="8.79121" fill="#00D6A5"/>
</g>
<g style="mix-blend-mode:multiply">
<rect x="89.2812" y="34.5075" width="21.978" height="21.978" rx="10.989" fill="#00D673"/>
</g>
<g style="mix-blend-mode:multiply">
<rect x="71.9312" y="30.9111" width="29.1705" height="29.1705" rx="14.5852" fill="#00D642"/>
</g>
<g style="mix-blend-mode:multiply">
<rect x="61.7734" y="34.5075" width="21.978" height="21.978" rx="10.989" fill="#00D60F"/>
</g>
<g style="mix-blend-mode:multiply">
<rect x="56.1016" y="36.7054" width="17.5824" height="17.5824" rx="8.79121" fill="#21D600"/>
</g>
<g style="mix-blend-mode:multiply">
<rect x="49.1538" y="38.9031" width="13.1868" height="13.1868" rx="6.59341" fill="#52D600"/>
</g>
<g style="mix-blend-mode:multiply">
<rect x="42.5603" y="38.9031" width="13.1868" height="13.1868" rx="6.59341" fill="#84D600"/>
</g>
<g style="mix-blend-mode:multiply">
<rect x="35.967" y="38.9031" width="13.1868" height="13.1868" rx="6.59341" fill="#B5D600"/>
</g>
<g style="mix-blend-mode:multiply">
<rect x="29.3735" y="38.9031" width="13.1868" height="13.1868" rx="6.59341" fill="#D6C600"/>
</g>
<g style="mix-blend-mode:multiply">
<rect x="22.7803" y="38.9031" width="13.1868" height="13.1868" rx="6.59341" fill="#D69400"/>
</g>
<g style="mix-blend-mode:multiply">
<rect x="16.1868" y="38.9031" width="13.1868" height="13.1868" rx="6.59341" fill="#D66300"/>
</g>
<g style="mix-blend-mode:multiply">
<rect x="9.59326" y="38.9031" width="13.1868" height="13.1868" rx="6.59341" fill="#D63100"/>
</g>
<g style="mix-blend-mode:multiply">
<rect x="3" y="38.9031" width="13.1868" height="13.1868" rx="6.59341" fill="#D60000"/>
</g>
<path d="M105.794 69.4121C105.794 70.2324 105.61 70.8851 105.242 71.3701C104.877 71.8551 104.374 72.0977 103.733 72.0977C103.115 72.0977 102.633 71.8747 102.288 71.4287L102.229 72H101.155V64.5H102.342V67.2246C102.683 66.821 103.144 66.6191 103.723 66.6191C104.368 66.6191 104.874 66.8584 105.242 67.3369C105.61 67.8154 105.794 68.4844 105.794 69.3438V69.4121ZM104.607 69.3096C104.607 68.7367 104.506 68.307 104.304 68.0205C104.103 67.734 103.81 67.5908 103.426 67.5908C102.911 67.5908 102.55 67.8154 102.342 68.2646V70.4424C102.553 70.9014 102.918 71.1309 103.435 71.1309C103.806 71.1309 104.093 70.9925 104.295 70.7158C104.497 70.4391 104.601 70.0208 104.607 69.4609V69.3096ZM108.382 70.3008L109.456 66.7168H110.721L108.621 72.8008C108.299 73.6895 107.752 74.1338 106.98 74.1338C106.808 74.1338 106.618 74.1045 106.409 74.0459V73.1279L106.634 73.1426C106.933 73.1426 107.158 73.0872 107.308 72.9766C107.461 72.8691 107.581 72.6868 107.669 72.4297L107.84 71.9756L105.984 66.7168H107.264L108.382 70.3008ZM114.847 71.0137H118.075V72H113.612V64.8906H114.847V71.0137ZM121.034 72.0977C120.282 72.0977 119.671 71.8617 119.203 71.3896C118.737 70.9144 118.504 70.2829 118.504 69.4951V69.3486C118.504 68.8213 118.605 68.3509 118.807 67.9375C119.012 67.5208 119.299 67.1969 119.667 66.9658C120.034 66.7347 120.445 66.6191 120.897 66.6191C121.616 66.6191 122.171 66.8486 122.562 67.3076C122.956 67.7666 123.153 68.416 123.153 69.2559V69.7344H119.701C119.737 70.1706 119.881 70.5156 120.135 70.7695C120.393 71.0234 120.715 71.1504 121.102 71.1504C121.646 71.1504 122.088 70.9307 122.43 70.4912L123.07 71.1016C122.858 71.4173 122.575 71.6631 122.22 71.8389C121.869 72.0114 121.473 72.0977 121.034 72.0977ZM120.892 67.5713C120.567 67.5713 120.303 67.6852 120.101 67.9131C119.903 68.141 119.776 68.4583 119.72 68.8652H121.981V68.7773C121.955 68.3802 121.849 68.0807 121.664 67.8789C121.478 67.6738 121.221 67.5713 120.892 67.5713ZM126.84 70.5645C126.84 70.3529 126.752 70.1917 126.576 70.0811C126.403 69.9704 126.115 69.8727 125.712 69.7881C125.308 69.7035 124.971 69.596 124.701 69.4658C124.109 69.1794 123.812 68.7643 123.812 68.2207C123.812 67.765 124.004 67.3841 124.388 67.0781C124.773 66.7721 125.261 66.6191 125.853 66.6191C126.485 66.6191 126.994 66.7754 127.382 67.0879C127.772 67.4004 127.968 67.8057 127.968 68.3037H126.781C126.781 68.0758 126.696 67.887 126.527 67.7373C126.358 67.5843 126.133 67.5078 125.853 67.5078C125.593 67.5078 125.38 67.568 125.214 67.6885C125.051 67.8089 124.97 67.9701 124.97 68.1719C124.97 68.3542 125.046 68.4958 125.199 68.5967C125.352 68.6976 125.661 68.8001 126.127 68.9043C126.592 69.0052 126.957 69.1273 127.221 69.2705C127.487 69.4105 127.684 69.5798 127.811 69.7783C127.942 69.9769 128.007 70.2178 128.007 70.501C128.007 70.9762 127.81 71.362 127.416 71.6582C127.022 71.9512 126.506 72.0977 125.868 72.0977C125.435 72.0977 125.049 72.0195 124.711 71.8633C124.372 71.707 124.109 71.4922 123.92 71.2188C123.731 70.9453 123.637 70.6507 123.637 70.335H124.789C124.805 70.6149 124.911 70.8314 125.106 70.9844C125.302 71.1341 125.56 71.209 125.883 71.209C126.195 71.209 126.433 71.1504 126.596 71.0332C126.758 70.9128 126.84 70.7565 126.84 70.5645ZM130.106 72H128.92V64.5H130.106V72ZM133.529 72.0977C132.778 72.0977 132.167 71.8617 131.698 71.3896C131.233 70.9144 131 70.2829 131 69.4951V69.3486C131 68.8213 131.101 68.3509 131.303 67.9375C131.508 67.5208 131.794 67.1969 132.162 66.9658C132.53 66.7347 132.94 66.6191 133.393 66.6191C134.112 66.6191 134.667 66.8486 135.058 67.3076C135.452 67.7666 135.649 68.416 135.649 69.2559V69.7344H132.196C132.232 70.1706 132.377 70.5156 132.631 70.7695C132.888 71.0234 133.21 71.1504 133.598 71.1504C134.141 71.1504 134.584 70.9307 134.926 70.4912L135.566 71.1016C135.354 71.4173 135.071 71.6631 134.716 71.8389C134.364 72.0114 133.969 72.0977 133.529 72.0977ZM133.388 67.5713C133.062 67.5713 132.799 67.6852 132.597 67.9131C132.398 68.141 132.271 68.4583 132.216 68.8652H134.477V68.7773C134.451 68.3802 134.345 68.0807 134.159 67.8789C133.974 67.6738 133.717 67.5713 133.388 67.5713ZM138.154 70.3008L139.228 66.7168H140.493L138.393 72.8008C138.071 73.6895 137.524 74.1338 136.752 74.1338C136.58 74.1338 136.389 74.1045 136.181 74.0459V73.1279L136.406 73.1426C136.705 73.1426 136.93 73.0872 137.079 72.9766C137.232 72.8691 137.353 72.6868 137.441 72.4297L137.612 71.9756L135.756 66.7168H137.036L138.154 70.3008ZM143.281 69.4561H140.717V68.499H143.281V69.4561ZM148.154 70.3447H145.4L144.824 72H143.54L146.225 64.8906H147.334L150.024 72H148.735L148.154 70.3447ZM145.747 69.3486H147.807L146.777 66.3994L145.747 69.3486ZM151.387 66.7168L151.421 67.3271C151.812 66.8551 152.324 66.6191 152.959 66.6191C154.059 66.6191 154.619 67.249 154.639 68.5088V72H153.452V68.5771C153.452 68.2419 153.379 67.9945 153.232 67.835C153.089 67.6722 152.853 67.5908 152.524 67.5908C152.046 67.5908 151.689 67.8073 151.455 68.2402V72H150.269V66.7168H151.387ZM156.753 66.7168L156.787 67.3271C157.178 66.8551 157.691 66.6191 158.325 66.6191C159.426 66.6191 159.986 67.249 160.005 68.5088V72H158.819V68.5771C158.819 68.2419 158.745 67.9945 158.599 67.835C158.456 67.6722 158.22 67.5908 157.891 67.5908C157.412 67.5908 157.056 67.8073 156.821 68.2402V72H155.635V66.7168H156.753ZM169.063 72H167.828L164.659 66.9561V72H163.423V64.8906H164.659L167.837 69.9541V64.8906H169.063V72ZM169.986 69.3096C169.986 68.792 170.089 68.3265 170.294 67.9131C170.499 67.4964 170.787 67.1774 171.158 66.9561C171.529 66.7314 171.956 66.6191 172.437 66.6191C173.15 66.6191 173.728 66.8486 174.171 67.3076C174.617 67.7666 174.858 68.3753 174.893 69.1338L174.898 69.4121C174.898 69.9329 174.797 70.3984 174.596 70.8086C174.397 71.2188 174.11 71.5361 173.736 71.7607C173.365 71.9854 172.935 72.0977 172.447 72.0977C171.702 72.0977 171.104 71.8503 170.655 71.3555C170.209 70.8574 169.986 70.195 169.986 69.3682V69.3096ZM171.173 69.4121C171.173 69.9557 171.285 70.3822 171.51 70.6914C171.734 70.9974 172.047 71.1504 172.447 71.1504C172.847 71.1504 173.158 70.9941 173.38 70.6816C173.604 70.3691 173.717 69.9118 173.717 69.3096C173.717 68.7757 173.601 68.3525 173.37 68.04C173.142 67.7275 172.831 67.5713 172.437 67.5713C172.05 67.5713 171.742 67.7259 171.514 68.0352C171.287 68.3411 171.173 68.8001 171.173 69.4121ZM178.028 72.0977C177.276 72.0977 176.666 71.8617 176.197 71.3896C175.732 70.9144 175.499 70.2829 175.499 69.4951V69.3486C175.499 68.8213 175.6 68.3509 175.802 67.9375C176.007 67.5208 176.293 67.1969 176.661 66.9658C177.029 66.7347 177.439 66.6191 177.892 66.6191C178.611 66.6191 179.166 66.8486 179.557 67.3076C179.951 67.7666 180.147 68.416 180.147 69.2559V69.7344H176.695C176.731 70.1706 176.876 70.5156 177.13 70.7695C177.387 71.0234 177.709 71.1504 178.097 71.1504C178.64 71.1504 179.083 70.9307 179.425 70.4912L180.064 71.1016C179.853 71.4173 179.57 71.6631 179.215 71.8389C178.863 72.0114 178.468 72.0977 178.028 72.0977ZM177.887 67.5713C177.561 67.5713 177.298 67.6852 177.096 67.9131C176.897 68.141 176.77 68.4583 176.715 68.8652H178.976V68.7773C178.95 68.3802 178.844 68.0807 178.658 67.8789C178.473 67.6738 178.215 67.5713 177.887 67.5713ZM182.135 72H180.948V64.5H182.135V72ZM186.872 69.3584V72H185.636V64.8906H188.356C189.15 64.8906 189.78 65.0973 190.246 65.5107C190.714 65.9242 190.949 66.471 190.949 67.1514C190.949 67.848 190.719 68.39 190.26 68.7773C189.805 69.1647 189.165 69.3584 188.341 69.3584H186.872ZM186.872 68.3672H188.356C188.796 68.3672 189.131 68.2646 189.362 68.0596C189.593 67.8512 189.709 67.5518 189.709 67.1611C189.709 66.777 189.591 66.471 189.357 66.2432C189.123 66.012 188.8 65.8932 188.39 65.8867H186.872V68.3672ZM192.887 67.293C193.275 66.8438 193.765 66.6191 194.357 66.6191C195.484 66.6191 196.055 67.262 196.071 68.5479V72H194.885V68.5918C194.885 68.2272 194.805 67.9701 194.645 67.8203C194.489 67.6673 194.258 67.5908 193.952 67.5908C193.477 67.5908 193.122 67.8024 192.887 68.2256V72H191.701V64.5H192.887V67.293ZM197.189 72V64.8906H199.289C199.917 64.8906 200.474 65.0306 200.959 65.3105C201.447 65.5905 201.825 65.9876 202.092 66.502C202.359 67.0163 202.492 67.6055 202.492 68.2695V68.626C202.492 69.2998 202.357 69.8923 202.087 70.4033C201.82 70.9144 201.438 71.3083 200.939 71.585C200.445 71.8617 199.877 72 199.235 72H197.189ZM198.425 65.8867V71.0137H199.23C199.878 71.0137 200.375 70.8118 200.72 70.4082C201.068 70.0013 201.245 69.4186 201.252 68.6602V68.2646C201.252 67.4932 201.084 66.904 200.749 66.4971C200.414 66.0902 199.927 65.8867 199.289 65.8867H198.425Z" fill="black"/>
</svg>
