<svg width="200" height="61" viewBox="0 0 200 61" fill="none" xmlns="http://www.w3.org/2000/svg">
<path d="M8.24953 21.3828C9.03048 21.3828 9.63545 21.1738 10.0644 20.7558C10.4934 20.3268 10.7024 19.7329 10.6914 18.9739H15.9051C15.9051 20.9318 15.2011 22.5377 13.7932 23.7916C12.3963 25.0456 10.5924 25.6725 8.38152 25.6725C5.78567 25.6725 3.73979 24.8586 2.24387 23.2307C0.747957 21.6028 0 19.3479 0 16.4661V16.2351C0 14.4312 0.329981 12.8418 0.989943 11.4668C1.6609 10.0809 2.62335 9.01948 3.87728 8.28252C5.13121 7.53457 6.61612 7.16059 8.33202 7.16059C10.6529 7.16059 12.4953 7.80405 13.8592 9.09098C15.2231 10.3779 15.9051 12.1213 15.9051 14.3212H10.6914C10.6914 13.3972 10.4659 12.6878 10.0149 12.1928C9.56395 11.6978 8.95899 11.4503 8.20003 11.4503C6.75911 11.4503 5.91766 12.3688 5.67567 14.2057C5.59868 14.7887 5.56018 15.5916 5.56018 16.6145C5.56018 18.4074 5.77467 19.6504 6.20364 20.3433C6.63262 21.0363 7.31458 21.3828 8.24953 21.3828Z" fill="#333333"/>
<path d="M27.3653 12.5228L25.5339 12.3908C23.785 12.3908 22.6631 12.9408 22.1681 14.0407V25.3425H16.6079V7.49057H21.8216L22.0031 9.78394C22.9381 8.03504 24.2415 7.16059 25.9134 7.16059C26.5074 7.16059 27.0243 7.22658 27.4643 7.35858L27.3653 12.5228Z" fill="#333333"/>
<path d="M33.5459 25.3425H27.9692V7.49057H33.5459V25.3425ZM27.6392 2.88733C27.6392 2.09538 27.9252 1.44642 28.4972 0.940446C29.0691 0.434475 29.8116 0.18149 30.7245 0.18149C31.6375 0.18149 32.3799 0.434475 32.9519 0.940446C33.5239 1.44642 33.8099 2.09538 33.8099 2.88733C33.8099 3.67929 33.5239 4.32825 32.9519 4.83422C32.3799 5.34019 31.6375 5.59318 30.7245 5.59318C29.8116 5.59318 29.0691 5.34019 28.4972 4.83422C27.9252 4.32825 27.6392 3.67929 27.6392 2.88733Z" fill="#333333"/>
<path d="M41.7723 3.05232V7.49057H44.7091V11.3513H41.7723V19.5184C41.7723 20.1893 41.8933 20.6568 42.1353 20.9208C42.3773 21.1848 42.8557 21.3168 43.5707 21.3168C44.1207 21.3168 44.5826 21.2838 44.9566 21.2178V25.1941C43.9557 25.513 42.9107 25.6725 41.8218 25.6725C39.9079 25.6725 38.4945 25.2216 37.5815 24.3196C36.6686 23.4177 36.2121 22.0482 36.2121 20.2113V11.3513H33.9353V7.49057H36.2121V3.05232H41.7723Z" fill="#333333"/>
<path d="M51.0877 25.3425H45.511V7.49057H51.0877V25.3425ZM45.181 2.88733C45.181 2.09538 45.467 1.44642 46.039 0.940446C46.6109 0.434475 47.3534 0.18149 48.2663 0.18149C49.1793 0.18149 49.9217 0.434475 50.4937 0.940446C51.0657 1.44642 51.3517 2.09538 51.3517 2.88733C51.3517 3.67929 51.0657 4.32825 50.4937 4.83422C49.9217 5.34019 49.1793 5.59318 48.2663 5.59318C47.3534 5.59318 46.6109 5.34019 46.039 4.83422C45.467 4.32825 45.181 3.67929 45.181 2.88733Z" fill="#333333"/>
<path d="M59.6186 21.3828C60.3995 21.3828 61.0045 21.1738 61.4335 20.7558C61.8624 20.3268 62.0714 19.7329 62.0604 18.9739H67.2741C67.2741 20.9318 66.5702 22.5377 65.1623 23.7916C63.7653 25.0456 61.9614 25.6725 59.7506 25.6725C57.1547 25.6725 55.1088 24.8586 53.6129 23.2307C52.117 21.6028 51.369 19.3479 51.369 16.4661V16.2351C51.369 14.4312 51.699 12.8418 52.359 11.4668C53.03 10.0809 53.9924 9.01948 55.2463 8.28252C56.5003 7.53457 57.9852 7.16059 59.7011 7.16059C62.0219 7.16059 63.8643 7.80405 65.2283 9.09098C66.5922 10.3779 67.2741 12.1213 67.2741 14.3212H62.0604C62.0604 13.3972 61.8349 12.6878 61.384 12.1928C60.933 11.6978 60.328 11.4503 59.5691 11.4503C58.1282 11.4503 57.2867 12.3688 57.0447 14.2057C56.9677 14.7887 56.9292 15.5916 56.9292 16.6145C56.9292 18.4074 57.1437 19.6504 57.5727 20.3433C58.0017 21.0363 58.6836 21.3828 59.6186 21.3828Z" fill="#333333"/>
<path d="M78.7599 25.3425C78.5619 24.9796 78.3859 24.4461 78.2319 23.7421C77.209 25.0291 75.7791 25.6725 73.9422 25.6725C72.2593 25.6725 70.8293 25.1666 69.6524 24.1546C68.4755 23.1317 67.887 21.8502 67.887 20.3103C67.887 18.3744 68.602 16.9115 70.0319 15.9216C71.4618 14.9316 73.5407 14.4367 76.2685 14.4367H77.9844V13.4962C77.9844 11.8573 77.275 11.0379 75.856 11.0379C74.5361 11.0379 73.8762 11.6868 73.8762 12.9848H68.316C68.316 11.2579 69.0474 9.85543 70.5104 8.7775C71.9843 7.69956 73.8597 7.16059 76.1365 7.16059C78.4134 7.16059 80.2118 7.71606 81.5317 8.82699C82.8516 9.93793 83.5281 11.4613 83.5611 13.3972V21.3003C83.5831 22.9392 83.8361 24.1931 84.3201 25.0621V25.3425H78.7599ZM75.2786 21.7128C75.9715 21.7128 76.5435 21.5643 76.9945 21.2673C77.4565 20.9703 77.7864 20.6348 77.9844 20.2608V17.4065H76.3675C74.4316 17.4065 73.4637 18.2754 73.4637 20.0134C73.4637 20.5193 73.6342 20.9318 73.9752 21.2508C74.3161 21.5588 74.7506 21.7128 75.2786 21.7128Z" fill="#333333"/>
<path d="M90.8306 25.3425H85.2539V0H90.8306V25.3425Z" fill="#333333"/>
<path d="M105.805 25.3425C105.607 24.7816 105.48 23.9511 105.425 22.8512C104.732 23.7531 103.847 24.4516 102.769 24.9466C101.702 25.4305 100.569 25.6725 99.3703 25.6725C97.6544 25.6725 96.263 25.1941 95.196 24.2371C94.1401 23.2802 93.6121 22.0702 93.6121 20.6073C93.6121 18.8694 94.3326 17.4945 95.7735 16.4826C97.2254 15.4706 99.2438 14.9646 101.829 14.9646H105.409V12.9353C105.409 11.6593 105.013 10.6584 104.221 9.93243C103.44 9.19547 102.296 8.82699 100.789 8.82699C99.4143 8.82699 98.2759 9.17897 97.3739 9.88293C96.472 10.5869 96.021 11.4338 96.021 12.4238L94.0411 12.4073C94.0411 10.9884 94.7011 9.76194 96.021 8.728C97.3409 7.68306 98.9633 7.16059 100.888 7.16059C102.879 7.16059 104.446 7.66106 105.59 8.662C106.745 9.65195 107.339 11.0379 107.372 12.8198V21.2673C107.372 22.9942 107.554 24.2866 107.917 25.1446V25.3425H105.805ZM99.6013 23.9236C100.921 23.9236 102.098 23.6046 103.132 22.9667C104.177 22.3287 104.936 21.4763 105.409 20.4093V16.4826H101.878C99.9093 16.5046 98.3693 16.8675 97.2584 17.5715C96.1475 18.2645 95.592 19.2214 95.592 20.4423C95.592 21.4433 95.9605 22.2737 96.6974 22.9337C97.4454 23.5936 98.4133 23.9236 99.6013 23.9236Z" fill="#333333"/>
<path d="M112.16 25.3425H110.18V0H112.16V25.3425Z" fill="#333333"/>
<path d="M129.189 16.598C129.189 19.3809 128.573 21.5918 127.341 23.2307C126.11 24.8586 124.46 25.6725 122.392 25.6725C119.95 25.6725 118.08 24.8146 116.782 23.0987V32.2062H114.819V7.49057H116.65L116.749 10.0149C118.036 8.11203 119.9 7.16059 122.342 7.16059C124.476 7.16059 126.148 7.96904 127.358 9.58595C128.579 11.2029 129.189 13.4467 129.189 16.3176V16.598ZM127.209 16.2516C127.209 13.9747 126.742 12.1763 125.807 10.8564C124.872 9.53645 123.569 8.87649 121.897 8.87649C120.687 8.87649 119.647 9.16797 118.778 9.75094C117.91 10.3339 117.244 11.1809 116.782 12.2918V20.8548C117.255 21.8777 117.932 22.6587 118.811 23.1977C119.691 23.7366 120.731 24.0061 121.93 24.0061C123.591 24.0061 124.883 23.3462 125.807 22.0262C126.742 20.6953 127.209 18.7704 127.209 16.2516Z" fill="#333333"/>
<path d="M132.838 10.5099C133.487 9.44296 134.318 8.618 135.33 8.03504C136.342 7.45207 137.447 7.16059 138.646 7.16059C140.56 7.16059 141.984 7.69956 142.919 8.7775C143.854 9.85543 144.327 11.4723 144.338 13.6282V25.3425H142.375V13.6117C142.364 12.0168 142.023 10.8289 141.352 10.0479C140.692 9.26697 139.63 8.87649 138.167 8.87649C136.947 8.87649 135.863 9.26147 134.917 10.0314C133.982 10.7904 133.289 11.8188 132.838 13.1167V25.3425H130.875V0H132.838V10.5099Z" fill="#333333"/>
<path d="M157.985 25.3425C157.787 24.7816 157.661 23.9511 157.606 22.8512C156.913 23.7531 156.028 24.4516 154.95 24.9466C153.883 25.4305 152.75 25.6725 151.551 25.6725C149.835 25.6725 148.444 25.1941 147.377 24.2371C146.321 23.2802 145.793 22.0702 145.793 20.6073C145.793 18.8694 146.513 17.4945 147.954 16.4826C149.406 15.4706 151.424 14.9646 154.009 14.9646H157.59V12.9353C157.59 11.6593 157.194 10.6584 156.402 9.93243C155.621 9.19547 154.477 8.82699 152.97 8.82699C151.595 8.82699 150.456 9.17897 149.554 9.88293C148.653 10.5869 148.202 11.4338 148.202 12.4238L146.222 12.4073C146.222 10.9884 146.882 9.76194 148.202 8.728C149.521 7.68306 151.144 7.16059 153.069 7.16059C155.06 7.16059 156.627 7.66106 157.771 8.662C158.926 9.65195 159.52 11.0379 159.553 12.8198V21.2673C159.553 22.9942 159.734 24.2866 160.097 25.1446V25.3425H157.985ZM151.782 23.9236C153.102 23.9236 154.279 23.6046 155.313 22.9667C156.358 22.3287 157.117 21.4763 157.59 20.4093V16.4826H154.059C152.09 16.5046 150.55 16.8675 149.439 17.5715C148.328 18.2645 147.773 19.2214 147.773 20.4423C147.773 21.4433 148.141 22.2737 148.878 22.9337C149.626 23.5936 150.594 23.9236 151.782 23.9236Z" fill="#333333"/>
<path d="M176.5 16.598C176.5 19.3809 175.884 21.5918 174.652 23.2307C173.42 24.8586 171.765 25.6725 169.686 25.6725C167.2 25.6725 165.319 24.7486 164.043 22.9007L163.961 25.3425H162.113V0H164.076V10.0809C165.33 8.13403 167.189 7.16059 169.653 7.16059C171.765 7.16059 173.431 7.96904 174.652 9.58595C175.884 11.1919 176.5 13.4302 176.5 16.3011V16.598ZM174.52 16.2516C174.52 13.8977 174.064 12.0828 173.151 10.8069C172.238 9.51995 170.951 8.87649 169.29 8.87649C168.025 8.87649 166.953 9.18997 166.073 9.81694C165.193 10.4329 164.527 11.3403 164.076 12.5393V20.5908C165.066 22.8347 166.815 23.9566 169.323 23.9566C170.951 23.9566 172.221 23.3132 173.134 22.0262C174.058 20.7393 174.52 18.8144 174.52 16.2516Z" fill="#333333"/>
<path d="M185.082 25.6725C183.564 25.6725 182.189 25.2985 180.957 24.5506C179.737 23.8026 178.785 22.7632 178.103 21.4323C177.421 20.0903 177.08 18.5889 177.08 16.928V16.2186C177.08 14.5027 177.41 12.9573 178.07 11.5823C178.741 10.2074 179.671 9.12948 180.858 8.34852C182.046 7.55657 183.333 7.16059 184.719 7.16059C186.886 7.16059 188.602 7.90305 189.867 9.38796C191.143 10.8619 191.781 12.8803 191.781 15.4431V16.5485H179.044V16.928C179.044 18.9519 179.621 20.6403 180.776 21.9932C181.942 23.3352 183.405 24.0061 185.165 24.0061C186.221 24.0061 187.15 23.8136 187.953 23.4287C188.767 23.0437 189.504 22.4277 190.164 21.5808L191.401 22.5212C189.949 24.6221 187.843 25.6725 185.082 25.6725ZM184.719 8.84349C183.234 8.84349 181.98 9.38796 180.957 10.4769C179.945 11.5658 179.33 13.0288 179.11 14.8656H189.817V14.6512C189.762 12.9353 189.273 11.5383 188.349 10.4604C187.425 9.38246 186.215 8.84349 184.719 8.84349Z" fill="#333333"/>
<path d="M195.991 2.92033V7.49057H199.687V9.10748H195.991V21.0033C195.991 21.9932 196.167 22.7302 196.519 23.2142C196.882 23.6981 197.481 23.9401 198.317 23.9401C198.647 23.9401 199.181 23.8851 199.917 23.7751L200 25.392C199.483 25.579 198.779 25.6725 197.888 25.6725C196.535 25.6725 195.551 25.282 194.935 24.5011C194.319 23.7091 194.011 22.5487 194.011 21.0198V9.10748H190.728V7.49057H194.011V2.92033H195.991Z" fill="#333333"/>
<g style="mix-blend-mode:multiply">
<rect x="186.813" y="38.9031" width="13.1868" height="13.1868" rx="6.59341" fill="#D60031"/>
</g>
<g style="mix-blend-mode:multiply">
<rect x="180.22" y="38.9031" width="13.1868" height="13.1868" rx="6.59341" fill="#D60063"/>
</g>
<g style="mix-blend-mode:multiply">
<rect x="173.626" y="38.9031" width="13.1868" height="13.1868" rx="6.59341" fill="#D60094"/>
</g>
<g style="mix-blend-mode:multiply">
<rect x="167.033" y="38.9031" width="13.1868" height="13.1868" rx="6.59341" fill="#D600C6"/>
</g>
<g style="mix-blend-mode:multiply">
<rect x="160.439" y="38.9031" width="13.1868" height="13.1868" rx="6.59341" fill="#B500D6"/>
</g>
<g style="mix-blend-mode:multiply">
<rect x="153.846" y="38.9031" width="13.1868" height="13.1868" rx="6.59341" fill="#8400D6"/>
</g>
<g style="mix-blend-mode:multiply">
<rect x="147.253" y="38.9031" width="13.1868" height="13.1868" rx="6.59341" fill="#5200D6"/>
</g>
<g style="mix-blend-mode:multiply">
<rect x="140.659" y="38.9031" width="13.1868" height="13.1868" rx="6.59341" fill="#2100D6"/>
</g>
<g style="mix-blend-mode:multiply">
<rect x="134.066" y="38.9031" width="13.1868" height="13.1868" rx="6.59341" fill="#000FD6"/>
</g>
<g style="mix-blend-mode:multiply">
<rect x="127.472" y="38.9031" width="13.1868" height="13.1868" rx="6.59341" fill="#0042D6"/>
</g>
<g style="mix-blend-mode:multiply">
<rect x="120.879" y="38.9031" width="13.1868" height="13.1868" rx="6.59341" fill="#0073D6"/>
</g>
<g style="mix-blend-mode:multiply">
<rect x="114.286" y="38.9031" width="13.1868" height="13.1868" rx="6.59341" fill="#00A5D6"/>
</g>
<g style="mix-blend-mode:multiply">
<rect x="107.692" y="38.9031" width="13.1868" height="13.1868" rx="6.59341" fill="#00D6D6"/>
</g>
<g style="mix-blend-mode:multiply">
<rect x="96.3488" y="36.7053" width="17.5824" height="17.5824" rx="8.79121" fill="#00D6A5"/>
</g>
<g style="mix-blend-mode:multiply">
<rect x="86.2814" y="34.5075" width="21.978" height="21.978" rx="10.989" fill="#00D673"/>
</g>
<g style="mix-blend-mode:multiply">
<rect x="68.9313" y="30.9111" width="29.1705" height="29.1705" rx="14.5852" fill="#00D642"/>
</g>
<g style="mix-blend-mode:multiply">
<rect x="58.7735" y="34.5075" width="21.978" height="21.978" rx="10.989" fill="#00D60F"/>
</g>
<g style="mix-blend-mode:multiply">
<rect x="53.1017" y="36.7053" width="17.5824" height="17.5824" rx="8.79121" fill="#21D600"/>
</g>
<g style="mix-blend-mode:multiply">
<rect x="46.1538" y="38.9031" width="13.1868" height="13.1868" rx="6.59341" fill="#52D600"/>
</g>
<g style="mix-blend-mode:multiply">
<rect x="39.5604" y="38.9031" width="13.1868" height="13.1868" rx="6.59341" fill="#84D600"/>
</g>
<g style="mix-blend-mode:multiply">
<rect x="32.967" y="38.9031" width="13.1868" height="13.1868" rx="6.59341" fill="#B5D600"/>
</g>
<g style="mix-blend-mode:multiply">
<rect x="26.3736" y="38.9031" width="13.1868" height="13.1868" rx="6.59341" fill="#D6C600"/>
</g>
<g style="mix-blend-mode:multiply">
<rect x="19.7802" y="38.9031" width="13.1868" height="13.1868" rx="6.59341" fill="#D69400"/>
</g>
<g style="mix-blend-mode:multiply">
<rect x="13.1869" y="38.9031" width="13.1868" height="13.1868" rx="6.59341" fill="#D66300"/>
</g>
<g style="mix-blend-mode:multiply">
<rect x="6.59332" y="38.9031" width="13.1868" height="13.1868" rx="6.59341" fill="#D63100"/>
</g>
<g style="mix-blend-mode:multiply">
<rect y="38.9031" width="13.1868" height="13.1868" rx="6.59341" fill="#D60000"/>
</g>
</svg>
